<?xml version="1.0" standalone="no"?>
<!DOCTYPE svg PUBLIC "-//W3C//DTD SVG 20010904//EN"
 "http://www.w3.org/TR/2001/REC-SVG-20010904/DTD/svg10.dtd">
<svg version="1.0" xmlns="http://www.w3.org/2000/svg"
 width="512.000000pt" height="512.000000pt" viewBox="0 0 512.000000 512.000000"
 preserveAspectRatio="xMidYMid meet">

<g transform="translate(0.000000,512.000000) scale(0.100000,-0.100000)"
fill="#f1c40f" stroke="none">
<path d="M1395 5044 c-257 -40 -533 -158 -745 -318 -36 -27 -112 -97 -170
-155 -277 -281 -437 -629 -470 -1028 -13 -158 -13 -1256 1 -1408 35 -408 207
-769 501 -1050 164 -157 320 -259 525 -343 184 -76 350 -109 602 -121 159 -7
172 -9 209 -34 22 -14 114 -110 205 -214 235 -267 304 -308 512 -308 204 1
267 39 510 315 117 133 186 203 212 215 29 15 74 21 201 27 373 17 631 99 912
289 316 214 567 569 661 931 51 200 51 202 56 913 5 700 0 837 -37 1007 -94
435 -366 819 -745 1055 -159 99 -333 169 -532 215 -98 22 -100 22 -1208 24
-912 2 -1126 0 -1200 -12z m2337 -1391 c63 -29 134 -96 166 -158 24 -44 27
-61 27 -145 0 -79 -4 -103 -24 -142 -31 -63 -88 -121 -153 -155 l-53 -28
-1135 0 -1135 0 -53 28 c-67 35 -122 90 -153 153 -20 41 -24 63 -24 144 0 83
4 101 27 145 44 84 131 154 215 174 22 5 515 9 1143 8 l1105 -2 47 -22z m-2
-994 c80 -37 125 -81 162 -157 28 -57 33 -76 33 -142 0 -134 -69 -240 -195
-299 l-55 -26 -1115 0 -1115 0 -55 26 c-80 37 -125 81 -162 157 -28 57 -33 76
-33 142 1 151 89 269 238 316 34 10 252 12 1142 11 l1100 -2 55 -26z"/>
</g>
</svg>
